<?xml version="1.0" encoding="utf-8"?>
<!-- Generator: Adobe Illustrator 17.0.0, SVG Export Plug-In . SVG Version: 6.00 Build 0)  -->
<!DOCTYPE svg PUBLIC "-//W3C//DTD SVG 1.1//EN" "http://www.w3.org/Graphics/SVG/1.1/DTD/svg11.dtd">
<svg version="1.1" id="Layer_1" xmlns="http://www.w3.org/2000/svg" xmlns:xlink="http://www.w3.org/1999/xlink" x="0px" y="0px"
	 width="98.531px" height="98.531px" viewBox="0 0 98.531 98.531" enable-background="new 0 0 98.531 98.531" xml:space="preserve">
<g>
	<path fill="#0D0023" d="M96.795,53.458L53.458,96.795c-2.316,2.316-6.07,2.316-8.385,0L1.737,53.458
		c-2.316-2.316-2.316-6.07,0-8.385L45.073,1.737c2.316-2.316,6.07-2.316,8.385,0l43.336,43.336
		C99.11,47.389,99.11,51.143,96.795,53.458z"/>
	<g>
		<g>
			<rect x="36.286" y="28.015" fill="#EE4037" width="25.419" height="4.308"/>
			<g>
				<path fill="#FFFFFF" d="M48.938,40.159c4.494,0,7.886,3.626,7.886,8.436c0,4.808-3.391,8.434-7.886,8.434
					c-4.432,0-7.776-3.626-7.776-8.434C41.163,43.785,44.506,40.159,48.938,40.159 M35.77,48.594
					c0,7.507,5.662,13.167,13.168,13.167c4.916,0,7.886-3.447,7.886-3.447v2.787h5.397l-0.004-12.509
					c0-7.506-5.709-13.168-13.279-13.168C41.432,35.425,35.77,41.087,35.77,48.594"/>
			</g>
		</g>
		<g>
			<g>
				<path fill="#FFFFFF" d="M28.001,62.474L15.392,49.865c-0.331-0.331-0.331-0.867,0-1.198l12.609-12.609
					c0.331-0.331,0.867-0.331,1.198,0l2.547,2.548c0.331,0.331,0.331,0.867,0,1.198l-8.862,8.863c-0.331,0.331-0.331,0.867,0,1.198
					l8.862,8.863c0.331,0.331,0.331,0.867,0,1.198l-2.547,2.547C28.868,62.805,28.332,62.805,28.001,62.474z"/>
			</g>
			<g>
				<path fill="#FFFFFF" d="M70.166,62.474l-2.547-2.547c-0.331-0.331-0.331-0.867,0-1.198l8.863-8.863
					c0.331-0.331,0.331-0.867,0-1.198l-8.863-8.863c-0.331-0.331-0.331-0.867,0-1.198l2.547-2.548c0.331-0.331,0.867-0.331,1.198,0
					l12.609,12.609c0.331,0.331,0.331,0.867,0,1.198L71.365,62.474C71.034,62.805,70.497,62.805,70.166,62.474z"/>
			</g>
		</g>
	</g>
</g>
<g>
</g>
<g>
</g>
<g>
</g>
<g>
</g>
<g>
</g>
<g>
</g>
<g>
</g>
<g>
</g>
<g>
</g>
<g>
</g>
<g>
</g>
<g>
</g>
<g>
</g>
<g>
</g>
<g>
</g>
</svg>
